<svg id="Acc_Icon_Mobile" data-name="Account_SVG_Mobile" xmlns="http://www.w3.org/2000/svg" width="40" height="40" viewBox="0 0 40 40">
  <circle id="Ellipse_12" data-name="Ellipse 12" cx="20" cy="20" r="20" fill="#fff"/>
  <g id="Ellipse_13" data-name="Ellipse 13" transform="translate(2 2)" fill="none" stroke="#000" stroke-width="1.5">
    <circle cx="18" cy="18" r="18" stroke="none"/>
    <circle cx="18" cy="18" r="17.25" fill="none"/>
  </g>
  <circle id="Ellipse_14" data-name="Ellipse 14" cx="9" cy="9" r="9" transform="translate(11 10)"/>
  <path id="Polygon_1" data-name="Polygon 1" d="M6,0l6,12H0Z" transform="translate(14 25)"/>
  <path id="Polygon_2" data-name="Polygon 2" d="M8,0l8,18H0Z" transform="translate(12 18)"/>
  <circle id="Ellipse_15" data-name="Ellipse 15" cx="7" cy="7" r="7" transform="translate(13 12)" fill="#fff"/>
  <circle id="Ellipse_16" data-name="Ellipse 16" cx="1" cy="1" r="1" transform="translate(16 16)"/>
  <circle id="Ellipse_17" data-name="Ellipse 17" cx="1" cy="1" r="1" transform="translate(22 16)"/>
</svg>

<svg id="Acc_Icon" data-name="Account_SVG" xmlns="http://www.w3.org/2000/svg" width="50" height="50" viewBox="0 0 50 50">
  <circle id="Ellipse_12" data-name="Ellipse 12" cx="25" cy="25" r="25" fill="#fff"/>
  <g id="Ellipse_13" data-name="Ellipse 13" transform="translate(3 3)" fill="none" stroke="#000" stroke-width="2.3">
    <circle cx="22" cy="22" r="22" stroke="none"/>
    <circle cx="22" cy="22" r="20.85" fill="none"/>
  </g>
  <circle id="Ellipse_14" data-name="Ellipse 14" cx="10" cy="10" r="10" transform="translate(15 12)"/>
  <path id="Polygon_2" data-name="Polygon 2" d="M10,0,20,21H0Z" transform="translate(15 23)"/>
  <circle id="Ellipse_15" data-name="Ellipse 15" cx="8" cy="8" r="8" transform="translate(17 14)" fill="#fff"/>
  <circle id="Ellipse_16" data-name="Ellipse 16" cx="1.5" cy="1.5" r="1.5" transform="translate(20 18)"/>
  <circle id="Ellipse_17" data-name="Ellipse 17" cx="1.5" cy="1.5" r="1.5" transform="translate(27 18)"/>
  <ellipse id="Ellipse_18" data-name="Ellipse 18" cx="6.5" cy="1.5" rx="6.5" ry="1.5" transform="translate(19 43)"/>
</svg>
